<svg width="36" height="32" viewBox="0 0 36 32" fill="none" xmlns="http://www.w3.org/2000/svg">
<path fill-rule="evenodd" clip-rule="evenodd" d="M34.0828 7.87459L19.4835 0.793341C18.6758 0.40222 17.3245 0.40222 16.5165 0.793341L1.91762 7.87459C1.39402 8.12814 1 8.74111 1 9.30006V10.6733C1 11.4163 1.63467 12.0217 2.4144 12.0217H4.84124V14.1217C4.84124 14.6022 5.25151 14.9929 5.75547 14.9929H5.9062V22.4822H5.75547C5.25151 22.4822 4.84124 22.873 4.84124 23.3538V25.4553H3.37622C2.06609 25.4553 1 26.4712 1 27.7206V28.6347C1 29.8837 2.06609 30.9 3.37622 30.9H32.6238C33.9339 30.9 35 29.8837 35 28.6347V27.7206C35 26.4712 33.9339 25.4553 32.6238 25.4553H31.1588V23.3538C31.1588 22.873 30.7485 22.4822 30.2445 22.4822H30.0938V14.9929H30.2445C30.7485 14.9929 31.1588 14.6022 31.1588 14.1217V12.0217H33.586C34.3653 12.0217 35 11.4163 35 10.6733V9.30006C35 8.74111 34.606 8.12814 34.0828 7.87459ZM32.6238 26.5004C33.3291 26.5004 33.9033 27.0478 33.9033 27.7206V28.6347C33.9033 29.3071 33.3291 29.8548 32.6238 29.8548H3.37622C2.67091 29.8548 2.09669 29.3071 2.09669 28.6347V27.7206C2.09669 27.0478 2.67091 26.5004 3.37622 26.5004H32.6238ZM5.93869 13.9474H6.08904C6.59262 13.9474 7.00327 14.3382 7.00289 14.819V22.6565C7.00289 23.137 6.59224 23.5278 6.08867 23.5278H5.93831V25.4553H10.5313V23.4716H10.381C9.87702 23.4716 9.46676 23.0808 9.46676 22.6V14.7617C9.46676 14.2816 9.87702 13.8902 10.381 13.8902H10.5313V12.0217H5.93869V13.9474ZM15.5203 14.936H15.6706V22.4257H15.5203C15.0167 22.4257 14.6064 22.8165 14.6064 23.2973V25.4553H11.6276V23.2973C11.6276 22.8165 11.2181 22.4257 10.7142 22.4257H10.5634V14.936H10.7142C11.2181 14.936 11.6276 14.5453 11.6276 14.0648V12.0217H14.6064V14.0648C14.6064 14.5453 15.0167 14.936 15.5203 14.936ZM15.7027 13.8905H15.8535C16.3578 13.8905 16.7673 14.282 16.7673 14.7621V22.6007C16.7673 23.0815 16.3578 23.4723 15.8535 23.4723H15.7027V25.456H20.2958V23.5285H20.1462C19.6418 23.5285 19.2323 23.1377 19.2323 22.6573V14.8193C19.2323 14.3385 19.6418 13.9478 20.1462 13.9478H20.2958V12.0221H15.7027V13.8905ZM25.2858 14.9929H25.4362V22.4822H25.2858C24.7819 22.4822 24.3724 22.873 24.3724 23.3538V25.4553H21.3924V23.3538C21.3924 22.873 20.9822 22.4822 20.4782 22.4822H20.329V14.9929H20.4782C20.9822 14.9929 21.3924 14.6022 21.3924 14.1217V12.0217H24.3724V14.1217C24.3724 14.6022 24.7819 14.9929 25.2858 14.9929ZM25.469 13.9474H25.619C26.1234 13.9474 26.5332 14.3382 26.5332 14.819V22.6569C26.5332 23.1373 26.1234 23.5281 25.619 23.5281H25.469V25.4556H30.0617V23.5281H29.9113C29.4074 23.5281 28.9971 23.1373 28.9971 22.6569V14.819C28.9971 14.3382 29.4074 13.9474 29.9113 13.9474H30.0617V12.0217H25.469V13.9474ZM33.9033 10.6733C33.9033 10.8397 33.7609 10.9762 33.586 10.9762H2.4144C2.23911 10.9762 2.09669 10.8397 2.09669 10.6733V9.30006C2.09669 9.13511 2.26027 8.88121 2.4144 8.8063L17.014 1.72577C17.2633 1.60512 17.6222 1.53597 18 1.53597C18.3778 1.53597 18.737 1.60512 18.9856 1.72577L33.5856 8.8063C33.7397 8.88121 33.9029 9.13475 33.9029 9.30006V10.6733H33.9033ZM18 3.78978C16.4334 3.78978 15.1587 5.00384 15.1587 6.49702C15.1587 7.9902 16.433 9.20534 18 9.20534C19.567 9.20534 20.8413 7.9902 20.8413 6.49702C20.8413 5.00384 19.5666 3.78978 18 3.78978ZM18 8.15947C17.0382 8.15947 16.2554 7.4136 16.2554 6.49702C16.2554 5.58116 17.0382 4.83565 18 4.83565C18.9618 4.83565 19.7442 5.58116 19.7442 6.49702C19.7442 7.41324 18.9618 8.15947 18 8.15947Z" fill="white"/>
<path d="M19.4835 0.793341L19.7017 0.343469L19.7015 0.343328L19.4835 0.793341ZM34.0828 7.87459L33.8645 8.32446L33.8647 8.32455L34.0828 7.87459ZM16.5165 0.793341L16.2986 0.343288L16.2983 0.343471L16.5165 0.793341ZM1.91762 7.87459L2.13554 8.32461L2.13583 8.32446L1.91762 7.87459ZM4.84124 12.0217H5.34124V11.5217H4.84124V12.0217ZM5.9062 14.9929H6.4062V14.4929H5.9062V14.9929ZM5.9062 22.4822V22.9822H6.4062V22.4822H5.9062ZM4.84124 25.4553V25.9553H5.34124V25.4553H4.84124ZM31.1588 25.4553H30.6588V25.9553H31.1588V25.4553ZM30.0938 22.4822H29.5938V22.9822H30.0938V22.4822ZM30.0938 14.9929V14.4929H29.5938V14.9929H30.0938ZM31.1588 12.0217V11.5217H30.6588V12.0217H31.1588ZM5.93869 13.9474H5.43869V14.4474H5.93869V13.9474ZM7.00289 14.819L6.50289 14.8186V14.819H7.00289ZM5.93831 23.5278V23.0278H5.43831V23.5278H5.93831ZM5.93831 25.4553H5.43831V25.9553H5.93831V25.4553ZM10.5313 25.4553V25.9553H11.0313V25.4553H10.5313ZM10.5313 23.4716H11.0313V22.9716H10.5313V23.4716ZM10.5313 13.8902V14.3902H11.0313V13.8902H10.5313ZM10.5313 12.0217H11.0313V11.5217H10.5313V12.0217ZM5.93869 12.0217V11.5217H5.43869V12.0217H5.93869ZM15.6706 14.936H16.1706V14.436H15.6706V14.936ZM15.6706 22.4257V22.9257H16.1706V22.4257H15.6706ZM14.6064 25.4553V25.9553H15.1064V25.4553H14.6064ZM11.6276 25.4553H11.1276V25.9553H11.6276V25.4553ZM10.5634 22.4257H10.0634V22.9257H10.5634V22.4257ZM10.5634 14.936V14.436H10.0634V14.936H10.5634ZM11.6276 12.0217V11.5217H11.1276V12.0217H11.6276ZM14.6064 12.0217H15.1064V11.5217H14.6064V12.0217ZM15.7027 13.8905H15.2027V14.3905H15.7027V13.8905ZM15.7027 23.4723V22.9723H15.2027V23.4723H15.7027ZM15.7027 25.456H15.2027V25.956H15.7027V25.456ZM20.2958 25.456V25.956H20.7958V25.456H20.2958ZM20.2958 23.5285H20.7958V23.0285H20.2958V23.5285ZM20.2958 13.9478V14.4478H20.7958V13.9478H20.2958ZM20.2958 12.0221H20.7958V11.5221H20.2958V12.0221ZM15.7027 12.0221V11.5221H15.2027V12.0221H15.7027ZM25.4362 14.9929H25.9362V14.4929H25.4362V14.9929ZM25.4362 22.4822V22.9822H25.9362V22.4822H25.4362ZM24.3724 25.4553V25.9553H24.8724V25.4553H24.3724ZM21.3924 25.4553H20.8924V25.9553H21.3924V25.4553ZM20.329 22.4822H19.829V22.9822H20.329V22.4822ZM20.329 14.9929V14.4929H19.829V14.9929H20.329ZM21.3924 12.0217V11.5217H20.8924V12.0217H21.3924ZM24.3724 12.0217H24.8724V11.5217H24.3724V12.0217ZM25.469 13.9474H24.969V14.4474H25.469V13.9474ZM25.469 23.5281V23.0281H24.969V23.5281H25.469ZM25.469 25.4556H24.969V25.9556H25.469V25.4556ZM30.0617 25.4556V25.9556H30.5617V25.4556H30.0617ZM30.0617 23.5281H30.5617V23.0281H30.0617V23.5281ZM30.0617 13.9474V14.4474H30.5617V13.9474H30.0617ZM30.0617 12.0217H30.5617V11.5217H30.0617V12.0217ZM25.469 12.0217V11.5217H24.969V12.0217H25.469ZM33.9033 10.6733H34.4033V10.1733H33.9033V10.6733ZM2.4144 8.8063L2.19621 8.35641L2.19584 8.3566L2.4144 8.8063ZM17.014 1.72577L16.7962 1.27569L16.7958 1.27588L17.014 1.72577ZM18.9856 1.72577L18.7673 2.17558L18.7674 2.17565L18.9856 1.72577ZM33.5856 8.8063L33.8042 8.35659L33.8038 8.35641L33.5856 8.8063ZM33.9029 10.6733H33.4029V11.1733H33.9029V10.6733ZM19.2653 1.24321L33.8645 8.32446L34.301 7.42472L19.7017 0.343469L19.2653 1.24321ZM16.7343 1.24339C17.0508 1.0902 17.5105 1 18.0001 1C18.4898 1 18.9494 1.0902 19.2656 1.24335L19.7015 0.343328C19.21 0.105357 18.59 0 18.0001 0C17.4102 0 16.7902 0.105361 16.2986 0.343289L16.7343 1.24339ZM2.13583 8.32446L16.7347 1.24321L16.2983 0.343471L1.69941 7.42472L2.13583 8.32446ZM1.5 9.30006C1.5 8.94201 1.77598 8.49871 2.13554 8.32461L1.69971 7.42458C1.01206 7.75756 0.5 8.54021 0.5 9.30006H1.5ZM1.5 10.6733V9.30006H0.5V10.6733H1.5ZM2.4144 11.5217C1.88811 11.5217 1.5 11.118 1.5 10.6733H0.5C0.5 11.7146 1.38122 12.5217 2.4144 12.5217V11.5217ZM4.84124 11.5217H2.4144V12.5217H4.84124V11.5217ZM5.34124 14.1217V12.0217H4.34124V14.1217H5.34124ZM5.75547 14.4929C5.50459 14.4929 5.34124 14.3035 5.34124 14.1217H4.34124C4.34124 14.9008 4.99843 15.4929 5.75547 15.4929V14.4929ZM5.9062 14.4929H5.75547V15.4929H5.9062V14.4929ZM6.4062 22.4822V14.9929H5.4062V22.4822H6.4062ZM5.75547 22.9822H5.9062V21.9822H5.75547V22.9822ZM5.34124 23.3538C5.34124 23.1715 5.50473 22.9822 5.75547 22.9822V21.9822C4.99829 21.9822 4.34124 22.5745 4.34124 23.3538H5.34124ZM5.34124 25.4553V23.3538H4.34124V25.4553H5.34124ZM3.37622 25.9553H4.84124V24.9553H3.37622V25.9553ZM1.5 27.7206C1.5 26.7697 2.31939 25.9553 3.37622 25.9553V24.9553C1.81278 24.9553 0.5 26.1728 0.5 27.7206H1.5ZM1.5 28.6347V27.7206H0.5V28.6347H1.5ZM3.37622 30.4C2.31945 30.4 1.5 29.5853 1.5 28.6347H0.5C0.5 30.1821 1.81273 31.4 3.37622 31.4V30.4ZM32.6238 30.4H3.37622V31.4H32.6238V30.4ZM34.5 28.6347C34.5 29.5853 33.6806 30.4 32.6238 30.4V31.4C34.1873 31.4 35.5 30.182 35.5 28.6347H34.5ZM34.5 27.7206V28.6347H35.5V27.7206H34.5ZM32.6238 25.9553C33.6806 25.9553 34.5 26.7697 34.5 27.7206H35.5C35.5 26.1728 34.1872 24.9553 32.6238 24.9553V25.9553ZM31.1588 25.9553H32.6238V24.9553H31.1588V25.9553ZM30.6588 23.3538V25.4553H31.6588V23.3538H30.6588ZM30.2445 22.9822C30.4953 22.9822 30.6588 23.1715 30.6588 23.3538H31.6588C31.6588 22.5745 31.0017 21.9822 30.2445 21.9822V22.9822ZM30.0938 22.9822H30.2445V21.9822H30.0938V22.9822ZM29.5938 14.9929V22.4822H30.5938V14.9929H29.5938ZM30.2445 14.4929H30.0938V15.4929H30.2445V14.4929ZM30.6588 14.1217C30.6588 14.3035 30.4954 14.4929 30.2445 14.4929V15.4929C31.0016 15.4929 31.6588 14.9008 31.6588 14.1217H30.6588ZM30.6588 12.0217V14.1217H31.6588V12.0217H30.6588ZM33.586 11.5217H31.1588V12.5217H33.586V11.5217ZM34.5 10.6733C34.5 11.1181 34.1118 11.5217 33.586 11.5217V12.5217C34.6189 12.5217 35.5 11.7145 35.5 10.6733H34.5ZM34.5 9.30006V10.6733H35.5V9.30006H34.5ZM33.8647 8.32455C34.224 8.49863 34.5 8.94197 34.5 9.30006H35.5C35.5 8.54025 34.988 7.75764 34.3008 7.42464L33.8647 8.32455ZM34.4033 27.7206C34.4033 26.7495 33.5825 26.0004 32.6238 26.0004V27.0004C33.0756 27.0004 33.4033 27.3461 33.4033 27.7206H34.4033ZM34.4033 28.6347V27.7206H33.4033V28.6347H34.4033ZM32.6238 30.3548C33.5826 30.3548 34.4033 29.6053 34.4033 28.6347H33.4033C33.4033 29.0089 33.0755 29.3548 32.6238 29.3548V30.3548ZM3.37622 30.3548H32.6238V29.3548H3.37622V30.3548ZM1.59669 28.6347C1.59669 29.6053 2.41736 30.3548 3.37622 30.3548V29.3548C2.92446 29.3548 2.59669 29.0089 2.59669 28.6347H1.59669ZM1.59669 27.7206V28.6347H2.59669V27.7206H1.59669ZM3.37622 26.0004C2.41746 26.0004 1.59669 26.7495 1.59669 27.7206H2.59669C2.59669 27.3461 2.92437 27.0004 3.37622 27.0004V26.0004ZM32.6238 26.0004H3.37622V27.0004H32.6238V26.0004ZM6.08904 13.4474H5.93869V14.4474H6.08904V13.4474ZM7.50289 14.8194C7.5035 14.0395 6.84561 13.4474 6.08904 13.4474V14.4474C6.33964 14.4474 6.50303 14.6368 6.50289 14.8186L7.50289 14.8194ZM7.50289 22.6565V14.819H6.50289V22.6565H7.50289ZM6.08867 24.0278C6.84519 24.0278 7.50289 23.4358 7.50289 22.6565H6.50289C6.50289 22.8382 6.3393 23.0278 6.08867 23.0278V24.0278ZM5.93831 24.0278H6.08867V23.0278H5.93831V24.0278ZM6.43831 25.4553V23.5278H5.43831V25.4553H6.43831ZM10.5313 24.9553H5.93831V25.9553H10.5313V24.9553ZM10.0313 23.4716V25.4553H11.0313V23.4716H10.0313ZM10.381 23.9716H10.5313V22.9716H10.381V23.9716ZM8.96676 22.6C8.96676 23.3793 9.6238 23.9716 10.381 23.9716V22.9716C10.1302 22.9716 9.96676 22.7823 9.96676 22.6H8.96676ZM8.96676 14.7617V22.6H9.96676V14.7617H8.96676ZM10.381 13.3902C9.62353 13.3902 8.96676 13.9834 8.96676 14.7617H9.96676C9.96676 14.5799 10.1305 14.3902 10.381 14.3902V13.3902ZM10.5313 13.3902H10.381V14.3902H10.5313V13.3902ZM10.0313 12.0217V13.8902H11.0313V12.0217H10.0313ZM5.93869 12.5217H10.5313V11.5217H5.93869V12.5217ZM6.43869 13.9474V12.0217H5.43869V13.9474H6.43869ZM15.6706 14.436H15.5203V15.436H15.6706V14.436ZM16.1706 22.4257V14.936H15.1706V22.4257H16.1706ZM15.5203 22.9257H15.6706V21.9257H15.5203V22.9257ZM15.1064 23.2973C15.1064 23.1148 15.27 22.9257 15.5203 22.9257V21.9257C14.7633 21.9257 14.1064 22.5181 14.1064 23.2973H15.1064ZM15.1064 25.4553V23.2973H14.1064V25.4553H15.1064ZM11.6276 25.9553H14.6064V24.9553H11.6276V25.9553ZM11.1276 23.2973V25.4553H12.1276V23.2973H11.1276ZM10.7142 22.9257C10.9644 22.9257 11.1276 23.1145 11.1276 23.2973H12.1276C12.1276 22.5185 11.4719 21.9257 10.7142 21.9257V22.9257ZM10.5634 22.9257H10.7142V21.9257H10.5634V22.9257ZM10.0634 14.936V22.4257H11.0634V14.936H10.0634ZM10.7142 14.436H10.5634V15.436H10.7142V14.436ZM11.1276 14.0648C11.1276 14.2471 10.9645 14.436 10.7142 14.436V15.436C11.4718 15.436 12.1276 14.8434 12.1276 14.0648H11.1276ZM11.1276 12.0217V14.0648H12.1276V12.0217H11.1276ZM14.6064 11.5217H11.6276V12.5217H14.6064V11.5217ZM15.1064 14.0648V12.0217H14.1064V14.0648H15.1064ZM15.5203 14.436C15.2699 14.436 15.1064 14.2468 15.1064 14.0648H14.1064C14.1064 14.8438 14.7635 15.436 15.5203 15.436V14.436ZM15.8535 13.3905H15.7027V14.3905H15.8535V13.3905ZM17.2673 14.7621C17.2673 13.9841 16.6117 13.3905 15.8535 13.3905V14.3905C16.1039 14.3905 16.2673 14.5799 16.2673 14.7621H17.2673ZM17.2673 22.6007V14.7621H16.2673V22.6007H17.2673ZM15.8535 23.9723C16.6114 23.9723 17.2673 23.3797 17.2673 22.6007H16.2673C16.2673 22.7834 16.1042 22.9723 15.8535 22.9723V23.9723ZM15.7027 23.9723H15.8535V22.9723H15.7027V23.9723ZM16.2027 25.456V23.4723H15.2027V25.456H16.2027ZM20.2958 24.956H15.7027V25.956H20.2958V24.956ZM19.7958 23.5285V25.456H20.7958V23.5285H19.7958ZM20.1462 24.0285H20.2958V23.0285H20.1462V24.0285ZM18.7323 22.6573C18.7323 23.436 19.3883 24.0285 20.1462 24.0285V23.0285C19.8953 23.0285 19.7323 22.8394 19.7323 22.6573H18.7323ZM18.7323 14.8193V22.6573H19.7323V14.8193H18.7323ZM20.1462 13.4478C19.3882 13.4478 18.7323 14.0404 18.7323 14.8193H19.7323C19.7323 14.6367 19.8955 14.4478 20.1462 14.4478V13.4478ZM20.2958 13.4478H20.1462V14.4478H20.2958V13.4478ZM19.7958 12.0221V13.9478H20.7958V12.0221H19.7958ZM15.7027 12.5221H20.2958V11.5221H15.7027V12.5221ZM16.2027 13.8905V12.0221H15.2027V13.8905H16.2027ZM25.4362 14.4929H25.2858V15.4929H25.4362V14.4929ZM25.9362 22.4822V14.9929H24.9362V22.4822H25.9362ZM25.2858 22.9822H25.4362V21.9822H25.2858V22.9822ZM24.8724 23.3538C24.8724 23.171 25.0356 22.9822 25.2858 22.9822V21.9822C24.5281 21.9822 23.8724 22.575 23.8724 23.3538H24.8724ZM24.8724 25.4553V23.3538H23.8724V25.4553H24.8724ZM21.3924 25.9553H24.3724V24.9553H21.3924V25.9553ZM20.8924 23.3538V25.4553H21.8924V23.3538H20.8924ZM20.4782 22.9822C20.729 22.9822 20.8924 23.1715 20.8924 23.3538H21.8924C21.8924 22.5745 21.2354 21.9822 20.4782 21.9822V22.9822ZM20.329 22.9822H20.4782V21.9822H20.329V22.9822ZM19.829 14.9929V22.4822H20.829V14.9929H19.829ZM20.4782 14.4929H20.329V15.4929H20.4782V14.4929ZM20.8924 14.1217C20.8924 14.3035 20.7291 14.4929 20.4782 14.4929V15.4929C21.2353 15.4929 21.8924 14.9008 21.8924 14.1217H20.8924ZM20.8924 12.0217V14.1217H21.8924V12.0217H20.8924ZM24.3724 11.5217H21.3924V12.5217H24.3724V11.5217ZM24.8724 14.1217V12.0217H23.8724V14.1217H24.8724ZM25.2858 14.4929C25.0355 14.4929 24.8724 14.304 24.8724 14.1217H23.8724C23.8724 14.9003 24.5282 15.4929 25.2858 15.4929V14.4929ZM25.619 13.4474H25.469V14.4474H25.619V13.4474ZM27.0332 14.819C27.0332 14.0398 26.3767 13.4474 25.619 13.4474V14.4474C25.87 14.4474 26.0332 14.6366 26.0332 14.819H27.0332ZM27.0332 22.6569V14.819H26.0332V22.6569H27.0332ZM25.619 24.0281C26.3766 24.0281 27.0332 23.4359 27.0332 22.6569H26.0332C26.0332 22.8388 25.8701 23.0281 25.619 23.0281V24.0281ZM25.469 24.0281H25.619V23.0281H25.469V24.0281ZM25.969 25.4556V23.5281H24.969V25.4556H25.969ZM30.0617 24.9556H25.469V25.9556H30.0617V24.9556ZM29.5617 23.5281V25.4556H30.5617V23.5281H29.5617ZM29.9113 24.0281H30.0617V23.0281H29.9113V24.0281ZM28.4971 22.6569C28.4971 23.436 29.1543 24.0281 29.9113 24.0281V23.0281C29.6605 23.0281 29.4971 22.8387 29.4971 22.6569H28.4971ZM28.4971 14.819V22.6569H29.4971V14.819H28.4971ZM29.9113 13.4474C29.1542 13.4474 28.4971 14.0397 28.4971 14.819H29.4971C29.4971 14.6367 29.6606 14.4474 29.9113 14.4474V13.4474ZM30.0617 13.4474H29.9113V14.4474H30.0617V13.4474ZM29.5617 12.0217V13.9474H30.5617V12.0217H29.5617ZM25.469 12.5217H30.0617V11.5217H25.469V12.5217ZM25.969 13.9474V12.0217H24.969V13.9474H25.969ZM33.586 11.4762C34.0154 11.4762 34.4033 11.137 34.4033 10.6733H33.4033C33.4033 10.5424 33.5063 10.4762 33.586 10.4762V11.4762ZM2.4144 11.4762H33.586V10.4762H2.4144V11.4762ZM1.59669 10.6733C1.59669 11.1373 1.98496 11.4762 2.4144 11.4762V10.4762C2.49326 10.4762 2.59669 10.5421 2.59669 10.6733H1.59669ZM1.59669 9.30006V10.6733H2.59669V9.30006H1.59669ZM2.19584 8.3566C2.00374 8.44996 1.86289 8.61584 1.77732 8.74878C1.69324 8.87939 1.59669 9.08041 1.59669 9.30006H2.59669C2.59669 9.31991 2.59433 9.33259 2.59347 9.33671C2.59254 9.34118 2.59219 9.34116 2.59384 9.33668C2.59742 9.32695 2.60532 9.31001 2.61817 9.29005C2.63095 9.27019 2.64379 9.25488 2.65283 9.24586C2.65707 9.24163 2.65856 9.2407 2.65671 9.24209C2.65511 9.2433 2.64732 9.24902 2.63296 9.256L2.19584 8.3566ZM16.7958 1.27588L2.19621 8.35641L2.63259 9.25618L17.2322 2.17565L16.7958 1.27588ZM18 1.03597C17.5726 1.03597 17.1334 1.11252 16.7962 1.27569L17.2318 2.17584C17.3933 2.09771 17.6718 2.03597 18 2.03597V1.03597ZM19.2039 1.27595C18.8671 1.11244 18.4271 1.03597 18 1.03597V2.03597C18.3285 2.03597 18.607 2.0978 18.7673 2.17558L19.2039 1.27595ZM33.8038 8.35641L19.2038 1.27588L18.7674 2.17565L33.3674 9.25618L33.8038 8.35641ZM34.4029 9.30006C34.4029 9.0806 34.3068 8.87973 34.2226 8.74886C34.1371 8.61577 33.9963 8.44996 33.8042 8.35659L33.367 9.256C33.3527 9.24903 33.3449 9.24332 33.3433 9.24209C33.3414 9.24069 33.3429 9.24159 33.3471 9.24578C33.356 9.25472 33.3688 9.26993 33.3815 9.28971C33.3943 9.30957 33.4021 9.32645 33.4057 9.33617C33.4074 9.34065 33.407 9.3407 33.4061 9.33628C33.4053 9.33222 33.4029 9.31969 33.4029 9.30006H34.4029ZM34.4029 10.6733V9.30006H33.4029V10.6733H34.4029ZM33.9033 10.1733H33.9029V11.1733H33.9033V10.1733ZM15.6587 6.49702C15.6587 5.30253 16.6864 4.28978 18 4.28978V3.28978C16.1803 3.28978 14.6587 4.70516 14.6587 6.49702H15.6587ZM18 8.70534C16.6863 8.70534 15.6587 7.69181 15.6587 6.49702H14.6587C14.6587 8.28859 16.1796 9.70534 18 9.70534V8.70534ZM20.3413 6.49702C20.3413 7.69181 19.3137 8.70534 18 8.70534V9.70534C19.8204 9.70534 21.3413 8.28859 21.3413 6.49702H20.3413ZM18 4.28978C19.3136 4.28978 20.3413 5.30253 20.3413 6.49702H21.3413C21.3413 4.70516 19.8197 3.28978 18 3.28978V4.28978ZM15.7554 6.49702C15.7554 7.7122 16.785 8.65947 18 8.65947V7.65947C17.2913 7.65947 16.7554 7.115 16.7554 6.49702H15.7554ZM18 4.33565C16.7853 4.33565 15.7554 5.28229 15.7554 6.49702H16.7554C16.7554 5.88003 17.291 5.33565 18 5.33565V4.33565ZM20.2442 6.49702C20.2442 5.28243 19.2148 4.33565 18 4.33565V5.33565C18.7088 5.33565 19.2442 5.8799 19.2442 6.49702H20.2442ZM18 8.65947C19.2152 8.65947 20.2442 7.71163 20.2442 6.49702H19.2442C19.2442 7.11485 18.7085 7.65947 18 7.65947V8.65947Z" fill="white"/>
</svg>
