<svg width="35" height="33" viewBox="0 0 35 33" fill="none" xmlns="http://www.w3.org/2000/svg">
<path d="M33.2843 9.4501C35.1584 13.1032 35.5111 17.2758 34.2738 21.1579C33.0365 25.0399 30.2976 28.3545 26.5888 30.458C22.8801 32.5615 18.466 33.3038 14.2037 32.5409C9.94134 31.778 6.13484 29.5643 3.52319 26.3296C0.911535 23.0948 -0.318924 19.0698 0.0706976 15.036C0.46032 11.0022 2.44222 7.24746 5.63163 4.50068C8.82104 1.7539 12.9904 0.211091 17.3302 0.17179C21.67 0.132488 25.8707 1.5995 29.1166 4.288L33.2321 0.447383C33.425 0.267529 33.6866 0.166543 33.9594 0.166626C34.2321 0.166709 34.4936 0.267856 34.6864 0.447828C34.8793 0.627801 34.9876 0.871869 34.9877 1.12637C34.9877 1.38088 34.8795 1.62499 34.6867 1.80504L24.0469 11.7342L24.0467 11.7345L24.0465 11.7346L18.2274 17.165C18.0345 17.3449 17.7729 17.4459 17.5001 17.4458C17.2274 17.4457 16.9659 17.3445 16.7731 17.1646C16.5802 16.9846 16.4719 16.7405 16.4718 16.486C16.4718 16.2315 16.58 15.9874 16.7728 15.8074L21.8118 11.1049C20.499 10.1891 18.8906 9.71874 17.2524 9.77159C15.6143 9.82444 14.0446 10.3973 12.8026 11.3955C11.5607 12.3937 10.7208 13.7575 10.422 15.2615C10.1231 16.7654 10.3831 18.3196 11.1589 19.667C11.9348 21.0144 13.1801 22.0744 14.6889 22.6719C16.1978 23.2693 17.88 23.3684 19.4574 22.9528C21.0348 22.5373 22.4131 21.6318 23.3644 20.3862C24.3157 19.1406 24.7831 17.6293 24.6893 16.1022C24.6815 15.9762 24.7003 15.8501 24.7448 15.7309C24.7892 15.6118 24.8584 15.502 24.9484 15.4078C25.0383 15.3136 25.1473 15.2369 25.2691 15.182C25.3908 15.1272 25.5229 15.0953 25.6579 15.0881C25.7929 15.0809 25.9281 15.0987 26.0557 15.1403C26.1833 15.1819 26.3009 15.2466 26.4017 15.3307C26.5025 15.4148 26.5846 15.5166 26.6432 15.6303C26.7019 15.744 26.7359 15.8673 26.7434 15.9933C26.8648 17.9691 26.2558 19.9238 25.0181 21.5309C23.7805 23.1379 21.9892 24.2997 19.9438 24.8222C17.8984 25.3447 15.7228 25.1961 13.7807 24.4013C11.8386 23.6064 10.2477 22.2136 9.27394 20.4555C8.30021 18.6974 8.00267 16.6807 8.43106 14.7425C8.85944 12.8043 9.98778 11.0621 11.6275 9.80702C13.2671 8.55199 15.3188 7.86024 17.4394 7.84742C19.56 7.8346 21.6211 8.50148 23.278 9.73658L27.6572 5.64995C24.7814 3.30986 21.0776 2.0487 17.2628 2.1106C13.4479 2.17251 9.79335 3.55309 7.00657 5.98507C4.21979 8.41705 2.49904 11.7274 2.17743 15.2754C1.85583 18.8233 2.95625 22.3564 5.26566 25.1907C7.57507 28.025 10.9292 29.9588 14.6787 30.6179C18.4282 31.2769 22.3064 30.6143 25.5625 28.7583C28.8185 26.9022 31.2209 23.9848 32.3044 20.5708C33.3879 17.1568 33.0756 13.489 31.4278 10.2776C31.3696 10.1638 31.336 10.0405 31.3288 9.9146C31.3217 9.78871 31.3412 9.66274 31.3862 9.54388C31.4312 9.42502 31.5009 9.3156 31.5912 9.22187C31.6816 9.12814 31.7908 9.05193 31.9127 8.9976C32.0346 8.94326 32.1668 8.91187 32.3017 8.9052C32.4366 8.89854 32.5716 8.91673 32.6989 8.95875C32.8263 9.00077 32.9436 9.06579 33.044 9.15009C33.1444 9.2344 33.2261 9.33634 33.2843 9.4501Z" fill="white"/>
</svg>
