<svg width="31" height="28" viewBox="0 0 31 28" fill="none" xmlns="http://www.w3.org/2000/svg">
<path d="M29.503 13.7745L16.216 0.493929C16.0258 0.305006 15.7686 0.198975 15.5005 0.198975C15.2325 0.198975 14.9753 0.305006 14.7851 0.493929L1.49808 13.7745C1.30321 13.9686 1.1492 14.1998 1.04515 14.4544C0.941088 14.709 0.889091 14.9819 0.892223 15.2569C0.905114 16.3913 1.84935 17.2969 2.98373 17.2969H4.35336V27.793H26.6477V17.2969H28.0463C28.5974 17.2969 29.1162 17.0809 29.5062 16.691C29.6982 16.4996 29.8503 16.272 29.9538 16.0214C30.0572 15.7709 30.1099 15.5022 30.1088 15.2311C30.1088 14.6833 29.8929 14.1644 29.503 13.7745ZM17.3052 25.4727H13.6958V18.8985H17.3052V25.4727ZM24.3274 14.9765V25.4727H19.3677V18.1251C19.3677 17.4129 18.7909 16.836 18.0786 16.836H12.9224C12.2102 16.836 11.6333 17.4129 11.6333 18.1251V25.4727H6.67367V14.9765H3.57992L15.5037 3.06239L27.4244 14.9765H24.3274Z" fill="white"/>
</svg>
