<svg width="33" height="33" viewBox="0 0 33 33" fill="none" xmlns="http://www.w3.org/2000/svg">
<path d="M2.52385 27.0541C2.52385 27.7118 3.15017 28.2432 3.9254 28.2432H29.0658C29.841 28.2432 30.4673 27.7118 30.4673 27.0541V18.3953C30.4673 11.8473 24.2129 6.54054 16.4956 6.54054C8.77829 6.54054 2.52385 11.8473 2.52385 18.3953V27.0541ZM5.67735 18.3953C5.67735 13.3264 10.5215 9.21622 16.4956 9.21622C22.4697 9.21622 27.3138 13.3264 27.3138 18.3953V25.5676H11.7654V19.2128C11.7654 19.0084 11.5683 18.8412 11.3274 18.8412H9.40023C9.15934 18.8412 8.96224 19.0084 8.96224 19.2128V25.5676H5.67735V18.3953ZM3.57064 9.01182L5.30506 7.5402C5.44084 7.425 5.44084 7.23547 5.30506 7.12027L2.33114 4.59696C2.26528 4.54163 2.17635 4.51059 2.08367 4.51059C1.991 4.51059 1.90207 4.54163 1.83621 4.59696L0.101788 6.06858C0.0365799 6.12446 0 6.19991 0 6.27855C0 6.35718 0.0365799 6.43264 0.101788 6.48851L3.07571 9.01182C3.21149 9.12703 3.43048 9.12703 3.57064 9.01182ZM32.8982 6.06858L31.1637 4.59696C31.0979 4.54163 31.009 4.51059 30.9163 4.51059C30.8236 4.51059 30.7347 4.54163 30.6688 4.59696L27.6949 7.12027C27.6297 7.17615 27.5931 7.2516 27.5931 7.33024C27.5931 7.40887 27.6297 7.48433 27.6949 7.5402L29.4293 9.01182C29.5651 9.12703 29.7885 9.12703 29.9242 9.01182L32.8982 6.48851C33.0339 6.36959 33.0339 6.18378 32.8982 6.06858ZM30.5111 30.6216H2.48005C1.70482 30.6216 1.0785 31.153 1.0785 31.8108V32.7027C1.0785 32.8662 1.23617 33 1.42889 33H31.5623C31.755 33 31.9127 32.8662 31.9127 32.7027V31.8108C31.9127 31.153 31.2864 30.6216 30.5111 30.6216ZM15.2692 4.16216H17.722C17.9147 4.16216 18.0723 4.02838 18.0723 3.86486V0.297297C18.0723 0.133784 17.9147 0 17.722 0H15.2692C15.0765 0 14.9188 0.133784 14.9188 0.297297V3.86486C14.9188 4.02838 15.0765 4.16216 15.2692 4.16216Z" fill="white"/>
</svg>
