<svg width="16" height="16" viewBox="0 0 16 16" fill="none" xmlns="http://www.w3.org/2000/svg">
<g clip-path="url(#clip0_208_971)">
<path fill-rule="evenodd" clip-rule="evenodd" d="M7.71451 8.85742V0.283022C7.71451 0.126578 7.84228 0 7.9998 0C8.15733 0 8.2851 0.126578 8.2851 0.283022V8.85742C8.2851 9.01351 8.15733 9.14044 7.9998 9.14044C7.84228 9.14044 7.71451 9.01351 7.71451 8.85742ZM4.78895 2.77387C4.86798 2.90916 4.82139 3.08231 4.68501 3.16053C3.67894 3.73778 2.83918 4.57102 2.2573 5.56907C1.67702 6.56373 1.3704 7.7008 1.3704 8.85742C1.3704 12.4839 4.34434 15.434 7.9998 15.434C11.6553 15.434 14.6292 12.4837 14.6292 8.85742C14.6292 7.7008 14.3226 6.56373 13.7423 5.56907C13.1606 4.57102 12.3208 3.73813 11.3146 3.16053C11.1782 3.08213 11.1316 2.90916 11.2107 2.77387C11.2895 2.63858 11.4642 2.59271 11.6003 2.67076C12.6929 3.29778 13.6043 4.20196 14.2362 5.28569C14.8667 6.3664 15.1998 7.60142 15.1998 8.85742C15.1998 12.7957 11.9698 16 7.9998 16C4.02983 16 0.799805 12.7957 0.799805 8.85742C0.799805 7.60142 1.13295 6.3664 1.7634 5.28569C2.39546 4.20178 3.30691 3.29778 4.39936 2.67076C4.53573 2.59253 4.71046 2.63858 4.78895 2.77387Z" fill="white"/>
</g>
<defs>
<clipPath id="clip0_208_971">
<rect width="16" height="16" fill="white"/>
</clipPath>
</defs>
</svg>
