<svg width="18" height="18" viewBox="0 0 18 18" fill="none" xmlns="http://www.w3.org/2000/svg">
<path d="M13.0377 11.5383C12.8566 11.3568 12.6108 11.2549 12.3545 11.2549H12.0813C12.0066 11.2549 11.9348 11.2259 11.8811 11.174C11.7709 11.0679 11.7634 10.8946 11.8582 10.7746C12.734 9.66558 13.2549 8.26762 13.2549 6.75488C13.2549 3.16488 10.3449 0.254883 6.75488 0.254883C3.16488 0.254883 0.254883 3.16488 0.254883 6.75488C0.254883 10.3449 3.16488 13.2549 6.75488 13.2549C8.26762 13.2549 9.66558 12.734 10.7746 11.8582C10.8946 11.7634 11.0679 11.7709 11.174 11.8811C11.2259 11.9348 11.2549 12.0066 11.2549 12.0813V12.3545C11.2549 12.6108 11.3568 12.8566 11.5383 13.0377L15.5091 17.0006C15.9211 17.4118 16.5883 17.4115 16.9999 16.9999C17.4115 16.5883 17.4118 15.9211 17.0006 15.5091L13.0377 11.5383ZM6.75488 11.2549C4.26488 11.2549 2.25488 9.24488 2.25488 6.75488C2.25488 4.26488 4.26488 2.25488 6.75488 2.25488C9.24488 2.25488 11.2549 4.26488 11.2549 6.75488C11.2549 9.24488 9.24488 11.2549 6.75488 11.2549Z" fill="black"/>
</svg>
